<svg width="80" height="80" viewBox="0 0 80 80" fill="none" xmlns="http://www.w3.org/2000/svg">
  <g clip-path="url(#clip0_17_136)">
    <mask id="mask0_17_136" style="mask-type:luminance" maskUnits="userSpaceOnUse" x="0" y="0" width="80" height="80">
      <path
        d="M80 40C80 17.9086 62.0914 0 40 0C17.9086 0 0 17.9086 0 40C0 62.0914 17.9086 80 40 80C62.0914 80 80 62.0914 80 40Z"
        fill="white" />
    </mask>
    <g mask="url(#mask0_17_136)">
      <path d="M80 0H0V80H80V0Z" fill="#6BFF22" />
      <path
        d="M54.1936 105.245C78.2195 94.0418 88.6141 65.4827 77.4107 41.4568C66.2072 17.4309 37.6481 7.03625 13.6222 18.2397C-10.4037 29.4432 -20.7984 58.0023 -9.59488 82.0282C1.60859 106.054 30.1677 116.449 54.1936 105.245Z"
        fill="#F42272" />
      <path
        d="M26.1274 54.5618C25.9348 56.7635 26.9163 58.9771 28.8559 60.7155C30.7955 62.454 33.5343 63.575 36.47 63.8318C39.4056 64.0886 42.2975 63.4603 44.5095 62.0851C46.7216 60.7098 48.0725 58.7003 48.2651 56.4986"
        fill="white" />
      <path
        d="M32.8242 41.7634C32.9312 40.5408 32.2746 39.4846 31.3576 39.4044C30.4406 39.3241 29.6106 40.2502 29.5036 41.4729C29.3966 42.6955 30.0533 43.7517 30.9702 43.8319C31.8872 43.9121 32.7173 42.986 32.8242 41.7634Z"
        fill="white" />
      <path
        d="M46.107 42.9255C46.2139 41.7029 45.5573 40.6467 44.6403 40.5665C43.7233 40.4862 42.8933 41.4123 42.7863 42.635C42.6793 43.8576 43.336 44.9138 44.2529 44.994C45.1699 45.0742 46 44.1481 46.107 42.9255Z"
        fill="white" />
    </g>
  </g>
  <defs>
    <clipPath id="clip0_17_136">
      <rect width="80" height="80" fill="white" />
    </clipPath>
  </defs>
</svg>