<svg width="25" height="20" viewBox="0 0 25 20" fill="none" xmlns="http://www.w3.org/2000/svg">
  <path
    d="M24.1164 9.06775L15.4491 0.400306C15.2017 0.152894 14.872 0.0170898 14.5204 0.0170898C14.1684 0.0170898 13.8388 0.153089 13.5914 0.400306L12.8045 1.18742C12.5573 1.43444 12.4211 1.76439 12.4211 2.11619C12.4211 2.4678 12.5573 2.80887 12.8045 3.05589L17.8608 8.12337H1.79657C1.07229 8.12337 0.5 8.69039 0.5 9.41487V10.5276C0.5 11.2521 1.07229 11.8763 1.79657 11.8763H17.9182L12.8047 16.9721C12.5575 17.2195 12.4213 17.5405 12.4213 17.8923C12.4213 18.2437 12.5575 18.5693 12.8047 18.8165L13.5916 19.6011C13.839 19.8485 14.1686 19.9834 14.5206 19.9834C14.8722 19.9834 15.2019 19.8468 15.4493 19.5994L24.1166 10.9321C24.3646 10.6839 24.501 10.3526 24.5 10.0004C24.5008 9.64706 24.3646 9.31555 24.1164 9.06775Z"
    fill="white" />
</svg>