<svg width="65" height="58" viewBox="0 0 65 58" fill="none" xmlns="http://www.w3.org/2000/svg">
<path d="M25.3719 57.3873C38.8704 57.3873 49.8131 46.4446 49.8131 32.9461C49.8131 19.4476 38.8704 8.50488 25.3719 8.50488C11.8734 8.50488 0.930664 19.4476 0.930664 32.9461C0.930664 46.4446 11.8734 57.3873 25.3719 57.3873Z" fill="#B0EF8F"/>
<path d="M25.6484 51.8375L25.3384 51.3092C20.603 43.2411 8.01932 26.1192 7.89222 25.9472L7.71069 25.7006L11.9979 21.4637L25.5688 30.9399C34.1134 19.852 42.0849 12.2364 47.2847 7.78912C52.9728 2.92427 56.6754 0.684655 56.7128 0.663193L56.797 0.612793H64.0692L63.3746 1.23144C45.509 17.1443 26.1446 50.9654 25.9518 51.3052L25.6484 51.8375Z" fill="#009045"/>
</svg>
