<svg width="111" height="108" viewBox="0 0 111 108" fill="none" xmlns="http://www.w3.org/2000/svg">
  <path
    d="M77.7249 80.5974C74.2653 84.0587 37.5784 100.677 9.93937 107.483C7.41937 108.109 4.75562 107.369 2.91955 105.533C1.08349 103.697 0.343514 101.033 0.969487 98.513C7.77532 70.874 24.3955 34.1889 27.855 30.7275L77.7249 80.5974Z"
    fill="#F0C419" />
  <path
    d="M77.7094 80.5931C81.3328 76.9696 73.1081 62.8701 59.339 49.101C45.5699 35.3319 31.4704 27.1072 27.847 30.7307C24.2235 34.3541 32.4482 48.4536 46.2173 62.2227C59.9865 75.9918 74.0859 84.2165 77.7094 80.5931Z"
    fill="#D25627" />
  <path
    d="M19.9795 92.1841C22.0296 92.1841 23.6914 90.5222 23.6914 88.4722C23.6914 86.4221 22.0296 84.7603 19.9795 84.7603C17.9295 84.7603 16.2676 86.4221 16.2676 88.4722C16.2676 90.5222 17.9295 92.1841 19.9795 92.1841Z"
    fill="#955BA5" />
  <path
    d="M43.6024 48.3333C42.851 48.3339 42.1734 47.8814 41.886 47.1871C41.5987 46.4929 41.7582 45.6939 42.2902 45.1633L54.1016 33.3538C60.4545 26.9989 61.2637 22.1419 56.7278 17.604C54.8235 15.3751 51.9142 14.271 49.0106 14.6753C46.9629 15.1089 45.0845 16.1261 43.6024 17.604C42.8741 18.3074 41.7165 18.2973 41.0006 17.5814C40.2847 16.8655 40.2747 15.7079 40.978 14.9797C42.9956 12.9586 45.5666 11.5804 48.3666 11.0191C52.465 10.3721 56.6095 11.8663 59.3521 14.9797C65.4471 21.0747 64.5636 28.1404 56.7259 35.9781L44.9182 47.7895C44.5693 48.1385 44.0958 48.3342 43.6024 48.3333Z"
    fill="#955BA5" />
  <path
    d="M92.1606 68.0176C91.41 68.0174 90.7335 67.5652 90.4463 66.8718C90.1591 66.1784 90.3178 65.3802 90.8484 64.8494C92.7361 63.1911 93.8181 60.8002 93.8181 58.2877C93.8181 55.7751 92.7361 53.3842 90.8484 51.7259C88.9382 49.4096 85.8733 48.387 82.955 49.0923C79.9267 50.1372 77.2207 51.9487 75.1005 54.3502L64.6013 64.8494C63.8766 65.574 62.7018 65.574 61.977 64.8494C61.2525 64.1247 61.2525 62.9498 61.977 62.2251L72.4762 51.7259C75.0526 48.8503 78.3409 46.704 82.0103 45.5028C86.2045 44.4287 90.6452 45.8229 93.4727 49.1015C100.724 56.3509 96.8859 64.0625 93.4727 67.4756C93.1255 67.8246 92.6529 68.0198 92.1606 68.0176Z"
    fill="#FF5364" />
  <path
    d="M68.5402 33.8953C67.7906 33.8952 67.1147 33.4441 66.8269 32.752C66.5391 32.0598 66.6959 31.2625 67.2243 30.7309C67.7106 30.2409 79.032 18.5985 69.715 6.95226C69.2598 6.43899 69.1248 5.71644 69.3641 5.07345C69.6034 4.43047 70.1779 3.97192 70.8579 3.88111C71.5379 3.79031 72.2126 4.08205 72.6122 4.63973C84.019 18.8954 69.9953 33.2216 69.8505 33.359C69.5027 33.7053 69.031 33.8983 68.5402 33.8953Z"
    fill="#F0C419" />
  <path
    d="M87.9771 38.9214C91.0521 38.9214 93.545 36.4286 93.545 33.3535C93.545 30.2785 91.0521 27.7856 87.9771 27.7856C84.902 27.7856 82.4092 30.2785 82.4092 33.3535C82.4092 36.4286 84.902 38.9214 87.9771 38.9214Z"
    fill="#FF5364" />
  <path
    d="M60.1377 7.42387C62.1878 7.42387 63.8496 5.76198 63.8496 3.71193C63.8496 1.66189 62.1878 0 60.1377 0C58.0877 0 56.4258 1.66189 56.4258 3.71193C56.4258 5.76198 58.0877 7.42387 60.1377 7.42387Z"
    fill="#3B97D3" />
  <path
    d="M104.681 74.2388C106.731 74.2388 108.393 72.5769 108.393 70.5269C108.393 68.4768 106.731 66.8149 104.681 66.8149C102.631 66.8149 100.969 68.4768 100.969 70.5269C100.969 72.5769 102.631 74.2388 104.681 74.2388Z"
    fill="#955BA5" />
  <path
    d="M87.9771 11.1358C86.952 11.1358 86.1211 10.3048 86.1211 9.2798V7.42384C86.1211 6.39882 86.952 5.56787 87.9771 5.56787C89.0021 5.56787 89.833 6.39882 89.833 7.42384V9.2798C89.833 10.3048 89.0021 11.1358 87.9771 11.1358Z"
    fill="#955BA5" />
  <path
    d="M93.5449 14.8477H91.689C90.664 14.8477 89.833 14.0167 89.833 12.9917C89.833 11.9667 90.664 11.1357 91.689 11.1357H93.5449C94.57 11.1357 95.4009 11.9667 95.4009 12.9917C95.4009 14.0167 94.57 14.8477 93.5449 14.8477Z"
    fill="#955BA5" />
  <path
    d="M87.9771 20.4156C86.952 20.4156 86.1211 19.5846 86.1211 18.5596V16.7036C86.1211 15.6786 86.952 14.8477 87.9771 14.8477C89.0021 14.8477 89.833 15.6786 89.833 16.7036V18.5596C89.833 19.5846 89.0021 20.4156 87.9771 20.4156Z"
    fill="#955BA5" />
  <path
    d="M84.2656 14.8477H82.4097C81.3847 14.8477 80.5537 14.0167 80.5537 12.9917C80.5537 11.9667 81.3847 11.1357 82.4097 11.1357H84.2656C85.2907 11.1357 86.1216 11.9667 86.1216 12.9917C86.1216 14.0167 85.2907 14.8477 84.2656 14.8477Z"
    fill="#955BA5" />
  <path
    d="M102.825 42.687C101.8 42.687 100.969 41.8561 100.969 40.8311V38.9751C100.969 37.9501 101.8 37.1191 102.825 37.1191C103.85 37.1191 104.681 37.9501 104.681 38.9751V40.8311C104.681 41.8561 103.85 42.687 102.825 42.687Z"
    fill="#3B97D3" />
  <path
    d="M108.393 46.3989H106.537C105.512 46.3989 104.681 45.568 104.681 44.543C104.681 43.518 105.512 42.687 106.537 42.687H108.393C109.418 42.687 110.249 43.518 110.249 44.543C110.249 45.568 109.418 46.3989 108.393 46.3989Z"
    fill="#3B97D3" />
  <path
    d="M102.825 51.9668C101.8 51.9668 100.969 51.1359 100.969 50.1109V48.2549C100.969 47.2299 101.8 46.3989 102.825 46.3989C103.85 46.3989 104.681 47.2299 104.681 48.2549V50.1109C104.681 51.1359 103.85 51.9668 102.825 51.9668Z"
    fill="#3B97D3" />
  <path
    d="M99.1123 46.3989H97.2564C96.2313 46.3989 95.4004 45.568 95.4004 44.543C95.4004 43.518 96.2313 42.687 97.2564 42.687H99.1123C100.137 42.687 100.968 43.518 100.968 44.543C100.968 45.568 100.137 46.3989 99.1123 46.3989Z"
    fill="#3B97D3" />
  <path
    d="M62.9597 88.4182C58.1527 90.6083 52.4735 93.021 46.3859 95.4338C45.4765 94.877 44.5114 94.246 43.5092 93.5593C39.8106 91.0679 36.2769 88.3401 32.9301 85.393C31.2783 83.9082 29.5708 82.3307 27.8448 80.6046C25.8589 78.6249 24.0524 76.6824 22.4254 74.7769C18.9609 70.7985 15.8146 66.5538 13.0156 62.0821C15.4284 55.9945 17.8411 50.3153 20.0497 45.5083C22.0165 49.3287 24.2686 52.9954 26.7869 56.4771C29.7965 60.6844 33.1089 64.6668 36.6978 68.3924C37.2174 68.9677 37.7742 69.5245 38.3496 70.0999C41.2305 72.9861 44.273 75.7063 47.4624 78.2476C52.2765 82.1455 57.4681 85.5526 62.9597 88.4182Z"
    fill="#FF5364" />
  <path
    d="M47.4609 78.2478C45.288 83.0918 43.9513 88.269 43.5077 93.5595C39.8092 91.0681 36.2755 88.3403 32.9287 85.3932C33.0583 79.5342 34.3385 73.7578 36.6963 68.3926C37.216 68.9679 37.7728 69.5247 38.3481 70.1001C41.2291 72.9863 44.2716 75.7065 47.4609 78.2478Z"
    fill="#955BA5" />
  <path
    d="M36.6972 68.3924C34.3394 73.7576 33.0592 79.534 32.9296 85.393C31.2778 83.9082 29.5703 82.3307 27.8442 80.6046C25.8583 78.6249 24.0519 76.6823 22.4248 74.7769C22.6171 68.4435 24.1012 62.2163 26.7863 56.4771C29.7959 60.6844 33.1083 64.6668 36.6972 68.3924Z"
    fill="#B49ACA" />
  <path
    d="M21.0698 104.38C17.2651 105.549 13.516 106.588 9.93403 107.479C7.4155 108.105 4.75301 107.366 2.91792 105.531C1.08283 103.696 0.343521 101.033 0.969713 98.5147C1.86058 94.9327 2.89992 91.1836 4.06918 87.3789C9.10052 93.6476 14.8012 99.3482 21.0698 104.38Z"
    fill="#FF5364" />
</svg>