<svg width="48" height="48" viewBox="0 0 48 48" fill="none" xmlns="http://www.w3.org/2000/svg">
  <path
    d="M24 46.5C36.4264 46.5 46.5 36.4264 46.5 24C46.5 11.5736 36.4264 1.5 24 1.5C11.5736 1.5 1.5 11.5736 1.5 24C1.5 36.4264 11.5736 46.5 24 46.5Z"
    fill="#FF5A54" />
  <path fill-rule="evenodd" clip-rule="evenodd"
    d="M46.494 24.4381C46.2632 36.5164 36.5159 46.2637 24.4376 46.4945C20.6156 42.6726 16.7834 38.8591 12.962 35.0377C11.962 34.0377 11.9619 32.4015 12.9619 31.4015L20.3633 24L12.9619 16.5985C11.9619 15.5986 11.9619 13.9624 12.9619 12.9624C13.9618 11.9625 15.598 11.9624 16.5981 12.9624L23.9995 20.3638L31.401 12.9624C32.4009 11.9624 34.0371 11.9624 35.0372 12.9624C38.8586 16.7838 42.672 20.6161 46.494 24.4381Z"
    fill="#DB3A3C" />
  <path fill-rule="evenodd" clip-rule="evenodd"
    d="M12.9619 35.0377C13.9618 36.0376 15.5981 36.0376 16.5981 35.0377L23.9995 27.6362L31.401 35.0377C32.4009 36.0376 34.0371 36.0376 35.0371 35.0377C36.037 34.0377 36.037 32.4015 35.0371 31.4015L27.6357 24L35.0372 16.5985C36.0371 15.5986 36.0371 13.9624 35.0372 12.9624C34.0372 11.9625 32.401 11.9625 31.401 12.9624L23.9995 20.3638L16.5981 12.9624C15.5981 11.9624 13.9619 11.9624 12.962 12.9624C11.962 13.9623 11.962 15.5985 12.962 16.5984L20.3633 24L12.9619 31.4015C11.9619 32.4014 11.9619 34.0377 12.9619 35.0377Z"
    fill="white" />
</svg>